# xmcd CD database file
#
# Track frame offsets:
#	150
#	18510
#	34910
#	54789
#	74673
#	95693
#	118959
#	140164
#	160053
#	180775
#	191499
#	211323
#
# Disc length: 3063 seconds
#
# Revision: 2
# Processed by: cddbd v1.5.2PL0 Copyright (c) Steve Scherf et al.
# Submitted via: CDex 1.51
#
DISCID=aa0bf50c
DTITLE=Caroline Leander - under my heart
DYEAR=2010
DGENRE=Jazz
TTITLE0=I didn't not
TTITLE1=how true?
TTITLE2=under my heart
TTITLE3=lonely with you
TTITLE4=troubles on my mind
TTITLE5=from now on
TTITLE6=enemy of love
TTITLE7=almost lost
TTITLE8=gravity
TTITLE9=unpredictable
TTITLE10=you can't love me later
TTITLE11=forgiveness
EXTD=YEAR: 2010
EXTT0=
EXTT1=
EXTT2=
EXTT3=
EXTT4=
EXTT5=
EXTT6=
EXTT7=
EXTT8=
EXTT9=
EXTT10=
EXTT11=
PLAYORDER=
